<svg viewBox="0 0 202 25" fill="none" xmlns="http://www.w3.org/2000/svg">
<path d="M92.7883 13.5713V8.71636H95.5282V5.14326H92.7242V0.496636L87.9975 0.656865L87.5809 5.14326H85.3056V8.71636H87.3405V14.0359C87.3405 15.5581 87.3085 16.904 88.382 18.0577C89.4555 19.2113 90.8495 19.676 92.3076 19.4837L95.5282 19.0671V15.1255C94.9995 15.2697 94.4867 15.3658 93.958 15.3658C92.6761 15.3819 92.7883 14.5807 92.7883 13.5713ZM75.2273 13.2668H84.6327V12.5298C84.6327 7.86715 81.7806 4.85485 77.1019 4.85485C75.0991 4.85485 72.952 5.54384 71.526 7.01794C70.2121 8.36386 69.459 10.4629 69.459 12.3696C69.459 14.3724 70.2602 16.2952 71.7663 17.6411C73.3686 19.0351 75.3715 19.4837 77.4224 19.4837C80.7551 19.4837 83.7674 17.9135 84.6166 14.5166L79.4733 14.1802C79.249 15.3819 78.56 15.8786 77.3262 15.8786C75.6919 15.8786 75.1471 14.773 75.2273 13.2668ZM75.1952 10.5269C75.1311 9.21307 75.7079 8.05942 77.15 8.05942C78.6882 8.05942 79.1208 9.11693 79.1208 10.5269H75.1952ZM62.7935 19.1953H68.2253V10.5269C68.2253 9.06887 68.2253 7.46657 67.344 6.31293C66.5269 5.22337 65.0047 4.83883 63.6908 4.83883C61.9924 4.83883 60.3741 5.49577 59.7171 7.08203H59.6531V5.11122H54.5257V19.1953H59.9735V11.0877C59.9735 9.9341 60.1177 8.63624 61.6239 8.63624C62.8096 8.63624 62.8096 9.82193 62.8096 10.6711V19.1953H62.7935ZM43.1015 14.2763C43.1015 13.5873 44.0148 13.5873 44.4794 13.5873L45.0562 13.6194L45.6811 13.6514C48.5172 13.6514 52.1223 12.8823 52.1223 9.35727C52.1223 8.10749 51.5135 6.95384 50.5521 6.18475C50.8245 5.72008 51.5936 5.70406 52.0742 5.70406L53.4202 5.75213L53.5644 1.98676L53.2119 1.95472L51.6096 1.8746C49.4465 1.8746 48.421 3.14041 48.1166 5.17531C47.2674 4.91894 46.3861 4.87088 45.5049 4.87088C42.6528 4.87088 38.6311 5.63997 38.6311 9.27715C38.6311 10.9115 39.4482 11.937 40.9063 12.5298C39.5284 13.0586 38.2145 14.0039 38.2145 15.6382C38.2145 16.6316 38.7272 17.2886 39.5123 17.8654C38.2786 18.314 37.4774 19.2434 37.4774 20.5893C37.4774 23.89 42.749 24.0502 45.0883 24.0502C46.7386 24.0502 48.9017 24.0022 50.4239 23.4414C52.2185 22.8325 53.5644 21.5667 53.5644 19.5638C53.5644 18.25 53.0196 16.872 51.9461 16.0708C50.9527 15.3178 49.6708 15.1575 48.4531 15.1095L44.6076 14.9492C44.1269 14.9332 43.1015 14.9813 43.1015 14.2763ZM43.8225 9.32523C43.8225 8.29977 44.3993 7.57874 45.4408 7.57874C46.5624 7.57874 47.1232 8.26772 47.1232 9.35727C47.1232 10.3186 46.5784 11.0397 45.5529 11.0397C44.4153 11.0397 43.8225 10.4629 43.8225 9.32523ZM43.4379 19.003L44.4314 19.0351L47.1232 19.1793C47.8122 19.2113 48.7415 19.1472 48.7415 20.0766C48.7415 21.3103 46.7066 21.1661 45.8894 21.1661C44.9761 21.1661 44.0468 21.1341 43.1656 20.9258C42.5887 20.8136 42.06 20.5412 42.06 19.8843C42.06 19.0671 42.813 19.003 43.4379 19.003ZM36.5641 16.1189V11.1839C36.5641 9.165 36.7885 7.35441 34.9458 6.07259C33.5679 5.07917 31.4689 4.87088 29.8185 4.87088C26.662 4.87088 23.3293 5.78418 22.5121 9.26114L27.5112 9.7258C27.6715 8.54011 28.5848 8.15556 29.6583 8.15556C30.9882 8.15556 31.3086 8.65226 31.3086 9.91807V10.0302C29.466 10.1424 27.5753 10.3667 25.7808 10.9115C23.826 11.5204 22.0955 13.0105 22.0955 15.2377C22.0795 18.0577 24.3708 19.4837 26.9825 19.4837C28.9052 19.4837 30.4755 18.8909 31.565 17.2565C31.565 17.8975 31.6131 18.5704 31.7573 19.1953H37.0128C36.5802 18.2019 36.5641 17.1604 36.5641 16.1189ZM31.2926 12.9143C31.2926 14.4525 31.2606 16.183 29.2096 16.183C28.3604 16.183 27.7836 15.7985 27.7836 14.8852C27.7836 13.1867 29.9787 12.7701 31.3086 12.6259V12.9143H31.2926ZM15.1095 19.1953H20.4932V0.336408H12.8824L10.3027 10.3347H10.2546L7.56278 0.320389H0V19.1953H4.34219V5.72009H4.39026L7.93131 19.1953H11.6166L15.0455 5.72009H15.0935V19.1953H15.1095Z" fill="white"/>
<path d="M123.088 2.82002H116.214V19.3716H113.17V2.82002H106.296V0H123.088V2.82002Z" fill="#FFD64D"/>
<path d="M133.455 12.8343H128.985V19.3876H125.908V0H133.695C138.021 0 141.162 2.51559 141.162 6.40914C141.162 9.29325 139.448 11.4243 136.836 12.3376L142.252 19.3716H138.486L133.455 12.8343ZM128.985 10.0143H133.567C136.163 10.0143 138.134 8.65233 138.134 6.42516C138.134 4.19798 136.163 2.83604 133.567 2.83604H128.985V10.0143Z" fill="#FFD64D"/>
<path d="M158.45 14.7411H148.997L146.994 19.3877H143.709L152.281 0.016098H155.165L163.722 19.3877H160.437L158.45 14.7411ZM157.28 12.0012L153.723 3.65329L150.134 12.0012H157.28Z" fill="#FFD64D"/>
<path d="M184.135 9.58166C184.135 15.2538 179.809 19.3876 173.849 19.3876H166.687V0H173.833C179.809 0 184.135 4.05378 184.135 9.58166ZM181.027 9.58166C181.027 5.73618 177.919 2.82002 173.849 2.82002H169.779V16.5196H173.849C177.919 16.5356 181.027 13.5714 181.027 9.58166Z" fill="#FFD64D"/>
<path d="M191.169 2.82002V8.37995H200.863V11.2H191.169V16.5356H202.001V19.3876H188.093V0H202.001V2.82002H191.169Z" fill="#FFD64D"/>
</svg>
