<svg viewBox="0 0 225 111" fill="none" xmlns="http://www.w3.org/2000/svg">
<path d="M217.943 31.5512V20.1833H224.384V11.801H217.804V0.910035L206.725 1.28559L205.76 11.801H200.42V20.1758H205.201V32.644C205.201 36.1968 205.137 39.3626 207.638 42.0741C208.78 43.3461 210.218 44.3169 211.825 44.9006C213.432 45.4842 215.158 45.6627 216.85 45.4203L224.384 44.4739V35.2316C223.191 35.5814 221.958 35.7758 220.715 35.8099C217.684 35.8099 217.943 33.9322 217.943 31.5512ZM176.794 30.8602H198.824V29.1251C198.824 18.1966 192.12 11.1325 181.173 11.1325C176.467 11.1325 171.446 12.7361 168.1 16.2062C165.009 19.3683 163.267 24.288 163.267 28.7346C163.243 31.06 163.712 33.364 164.645 35.4945C165.577 37.6249 166.95 39.5334 168.675 41.0939C172.43 44.3762 177.117 45.4128 181.947 45.4128C189.739 45.4128 196.822 41.7361 198.824 33.7707L186.776 32.982C186.262 35.8099 184.651 36.9629 181.759 36.9629C177.891 36.9629 176.599 34.3941 176.794 30.8564V30.8602ZM176.734 24.4157C176.599 21.3362 177.951 18.6435 181.304 18.6435C184.913 18.6435 185.942 21.1372 185.942 24.4157H176.734ZM147.663 44.7405H160.409V24.4383C160.409 21.0245 160.409 17.3028 158.343 14.5763C156.417 12.0263 152.875 11.1325 149.784 11.1325C145.8 11.1325 142.007 12.6648 140.475 16.3902H140.339V11.801H128.269V44.7405H141.038V25.7302C141.038 23.0149 141.357 19.9842 144.906 19.9842C147.678 19.9842 147.678 22.7596 147.678 24.7575L147.663 44.7405ZM101.519 33.2074C101.519 31.5925 103.644 31.5925 104.733 31.5925L106.093 31.6563L107.573 31.7127C114.205 31.7127 122.655 29.9175 122.655 21.6517C122.637 20.2147 122.298 18.7999 121.661 17.5116C121.024 16.2234 120.106 15.0945 118.974 14.2083C119.601 13.1304 121.4 13.0816 122.561 13.0816L125.715 13.2056L126.038 4.38388L125.208 4.32003L121.453 4.13226C116.364 4.13226 113.979 7.0916 113.273 11.8573C111.28 11.3205 109.219 11.0763 107.156 11.1325C100.456 11.1325 91.0559 12.9389 91.0559 21.4639C91.0559 25.2983 92.9862 27.683 96.3962 29.0913C93.1815 30.3194 90.0907 32.5652 90.0907 36.3808C90.0907 38.7017 91.3075 40.2489 93.1177 41.6009C90.2109 42.6337 88.3482 44.8269 88.3482 47.9853C88.3482 55.7066 100.711 56.0934 106.191 56.0934C110.051 56.0934 115.14 55.962 118.681 54.6813C122.876 53.258 126.023 50.2987 126.023 45.6118C126.023 42.5173 124.743 39.295 122.223 37.4248C119.906 35.6785 116.883 35.2917 114.047 35.1715L105.034 34.796C103.873 34.796 101.496 34.9199 101.496 33.2487L101.519 33.2074ZM103.156 21.6292C103.156 19.2256 104.512 17.5394 106.953 17.5394C109.582 17.5394 110.881 19.1618 110.881 21.693C110.881 23.9463 109.597 25.6513 107.216 25.6513C104.568 25.6513 103.156 24.2956 103.156 21.6292ZM102.27 44.3387L104.587 44.4063L110.896 44.733C112.511 44.7893 114.704 44.6692 114.704 46.8436C114.704 49.7316 109.935 49.4086 108.004 49.4086C105.871 49.4086 103.686 49.3448 101.62 48.8378C100.272 48.5749 99.0476 47.9365 99.0476 46.3967C99.0476 44.4701 100.783 44.3387 102.27 44.3387ZM86.1475 37.5788V25.963C86.1475 21.2386 86.6582 16.9836 82.3506 13.9642C79.1397 11.6433 74.1899 11.1325 70.333 11.1325C62.9272 11.1325 55.1308 13.2581 53.2042 21.4339L64.9213 22.5305C65.2969 19.7552 67.4375 18.8463 69.9462 18.8463C73.0445 18.8463 73.8181 20.0105 73.8181 22.9774V23.2328C69.4993 23.4956 65.0565 24.0064 60.8692 25.302C56.2912 26.7329 52.2315 30.218 52.2315 35.4419C52.2052 42.0628 57.5531 45.4015 63.6708 45.4015C68.1774 45.4015 71.8503 43.9969 74.4303 40.1926C74.4165 41.7152 74.5663 43.2349 74.8772 44.7255H87.1877C86.2151 42.4159 86.1587 39.9598 86.1587 37.5112L86.1475 37.5788ZM73.8144 30.0002C73.8144 33.613 73.7468 37.6727 68.9322 37.6727C66.9343 37.6727 65.5861 36.7713 65.5861 34.6683C65.5861 30.6724 70.7349 29.7035 73.8482 29.3805L73.8144 30.0002ZM35.8838 44.7142H48.491V0.534485H30.6712L24.6248 23.9914H24.5084L18.1879 0.534485H0.473145V44.7443H10.6581V13.1605H10.782L19.0892 44.7443H27.7268L35.7749 13.1605H35.9063L35.8838 44.7142Z" fill="white"/>
<path d="M40.0413 71.6562H23.9452V110.462H16.8098V71.6562H0.702393V65.0428H40.0413V71.6562Z" fill="#FFD64D"/>
<path d="M64.358 95.0981H53.8688V110.462H46.6658V65.0428H64.9025C75.0424 65.0428 82.4032 70.9201 82.4032 80.0648C82.4032 86.8247 78.396 91.8195 72.2633 93.9602L84.9569 110.458H76.1127L64.358 95.0981ZM53.8688 88.4884H64.6246C70.701 88.4884 75.309 85.2812 75.309 80.0723C75.309 74.8634 70.701 71.6562 64.6246 71.6562H53.8688V88.4884Z" fill="#FFD64D"/>
<path d="M122.936 99.5746H100.745L96.0695 110.466H88.4045L108.508 65.0464H115.268L135.296 110.462H127.612L122.936 99.5746ZM120.199 93.1639L111.846 73.5902L103.43 93.1639H120.199Z" fill="#FFD64D"/>
<path d="M183.118 87.4857C183.118 100.776 172.979 110.462 159.008 110.462H142.24V65.0428H159.008C172.967 65.0428 183.118 74.5179 183.118 87.4857ZM175.836 87.4857C175.836 78.4725 168.558 71.6562 159.008 71.6562H149.454V103.785H159.008C168.558 103.785 175.855 96.8369 175.855 87.4857H175.836Z" fill="#FFD64D"/>
<path d="M199.62 71.6562V84.6803H222.33V91.2938H199.62V103.785H225V110.462H192.406V65.0428H225V71.6562H199.62Z" fill="#FFD64D"/>
</svg>
